<svg preserveAspectRatio="none" overflow="visible" style="display: block;" width="13.2002" height="3.51997" viewBox="0 0 13.2002 3.51997" fill="none" xmlns="http://www.w3.org/2000/svg">
<g id="rings">
<path id="l" d="M0 0.5C0 0.223858 0.223858 0 0.5 0H1.26C1.53614 0 1.76 0.223858 1.76 0.5V3.01997C1.76 3.29612 1.53614 3.51997 1.26 3.51997H0.5C0.223858 3.51997 0 3.29612 0 3.01997V0.5Z" fill="#1A4A18"/>
<path id="r" d="M11.4402 0.5C11.4402 0.223858 11.6641 0 11.9402 0H12.7002C12.9763 0 13.2002 0.223858 13.2002 0.5V3.01997C13.2002 3.29612 12.9763 3.51997 12.7002 3.51997H11.9402C11.6641 3.51997 11.4402 3.29612 11.4402 3.01997V0.5Z" fill="#1A4A18"/>
</g>
</svg>
